<svg width="40" height="40" viewBox="0 0 40 40" fill="none" xmlns="http://www.w3.org/2000/svg">
<path fill-rule="evenodd" clip-rule="evenodd" d="M21.5671 35V29.244H18.4164V35H21.5671ZM20.123 4.13882L20.5825 5.66455H22.0921C22.1578 5.66455 22.2233 5.73397 22.2233 5.87257C22.2233 5.94198 22.2232 6.01118 22.1576 6.01118L20.976 6.98208L21.4355 8.50781C21.4355 8.64641 21.4355 8.71583 21.3043 8.78524C21.2386 8.78524 21.1731 8.78524 21.1731 8.71583L19.9915 7.74493L18.81 8.71583C18.7443 8.78524 18.6131 8.78524 18.5474 8.71583C18.5474 8.64641 18.4817 8.57722 18.5474 8.50781L19.0069 6.98208L17.7596 6.01118C17.6939 5.94177 17.6939 5.80316 17.7596 5.73375C17.8253 5.73375 17.8253 5.66434 17.8908 5.66434H19.3349L19.7944 4.13861C19.8601 4 19.9256 4 20.057 4C20.1227 4 20.1227 4.06941 20.1227 4.13861L20.123 4.13882ZM25.8995 4.13882L26.359 5.66455H27.8031C27.9343 5.66455 28 5.73397 28 5.87257C28 5.94198 27.9343 6.01118 27.9343 6.01118L26.687 6.98208L27.1465 8.50781C27.2122 8.64641 27.1465 8.71583 27.0808 8.78524C27.0151 8.78524 26.9496 8.78524 26.8839 8.71583L25.7024 7.74493L24.5208 8.71583C24.4551 8.78524 24.3239 8.78524 24.3239 8.71583C24.2582 8.64641 24.2582 8.57722 24.2582 8.50781L24.7177 6.98208L23.5361 6.01118C23.4704 5.94177 23.4704 5.80316 23.4704 5.73375C23.5361 5.73375 23.6016 5.66434 23.6673 5.66434H25.1114L25.5709 4.13861C25.5709 4 25.7021 4 25.7678 4C25.8335 4 25.899 4.06941 25.899 4.13861L25.8995 4.13882ZM14.4124 4.13882L14.8719 5.66455H16.316C16.4472 5.66455 16.5129 5.73397 16.5129 5.87257C16.5129 5.94198 16.4472 6.01118 16.4472 6.01118L15.2657 6.98208L15.7251 8.50781C15.7251 8.64641 15.6594 8.71583 15.594 8.78524C15.5283 8.78524 15.4628 8.78524 15.3971 8.71583L14.2155 7.74493L13.0339 8.71583C12.9682 8.78524 12.9028 8.78524 12.8371 8.71583C12.7714 8.64641 12.7714 8.57722 12.7714 8.50781L13.2308 6.98208L12.0493 6.01118C11.9836 5.94177 11.9836 5.80316 12.0493 5.73375C12.0493 5.73375 12.115 5.66434 12.1805 5.66434H13.6246L14.0841 4.13861C14.0841 4 14.2152 4 14.2809 4C14.3466 4 14.4121 4.06941 14.4121 4.13861L14.4124 4.13882ZM22.9455 28.4807V34.9994H27.8029V10.4494H12.1808V34.9994H17.0382V28.4807C17.0382 28.0646 17.3008 27.7872 17.6945 27.7872H22.2236C22.6174 27.7872 22.9457 28.0647 22.9457 28.4807H22.9455ZM21.1076 24.5277H18.8759V22.1004H21.1076V24.5277ZM21.1076 19.6732H18.8759V17.3154H21.1076V19.6732ZM25.6367 24.5277H23.4049V22.1004H25.6367V24.5277ZM21.1076 14.8879H18.8759V12.4607H21.1076V14.8879ZM25.6367 19.673H23.4049V17.3151H25.6367V19.673ZM25.6367 14.8879H23.4049V12.4607H25.6367V14.8879ZM16.5781 14.8879H14.2807V12.4607H16.5781V14.8879ZM16.5781 19.673H14.2807V17.3151H16.5781V19.673ZM16.5781 24.5275H14.2807V22.1002H16.5781V24.5275Z" fill="white"/>
</svg>
