<svg width="17" height="14" viewBox="0 0 17 14" fill="none" xmlns="http://www.w3.org/2000/svg">
<path d="M13.8688 14H3.12974C3.03955 14 2.95305 13.9658 2.88928 13.905C2.8255 13.8441 2.78967 13.7616 2.78967 13.6756V2.46528C2.78967 2.37924 2.8255 2.29672 2.88928 2.23589C2.95305 2.17505 3.03955 2.14087 3.12974 2.14087H13.8688C13.959 2.14087 14.0455 2.17505 14.1092 2.23589C14.173 2.29672 14.2088 2.37924 14.2088 2.46528V13.6756C14.2088 13.7616 14.173 13.8441 14.1092 13.905C14.0455 13.9658 13.959 14 13.8688 14ZM3.47044 13.3512H13.5287V2.78969H3.47076L3.47044 13.3512Z" fill="white"/>
<path d="M3.13065 13.9997H1.36875C1.00581 13.9993 0.657858 13.8616 0.401248 13.6167C0.144638 13.3719 0.000332433 13.0399 0 12.6937V3.4466C0.000415538 3.10042 0.144757 2.76853 0.401358 2.52375C0.65796 2.27896 1.00586 2.14127 1.36875 2.14087H3.13065C3.22084 2.14087 3.30734 2.17505 3.37111 2.23589C3.43489 2.29672 3.47072 2.37924 3.47072 2.46528V13.6756C3.47072 13.7616 3.43489 13.8441 3.37111 13.905C3.30734 13.9658 3.22084 14 3.13065 14V13.9997ZM1.36875 2.78939C1.18619 2.78986 1.01125 2.85926 0.882157 2.98241C0.753065 3.10556 0.68032 3.27244 0.679823 3.4466V12.694C0.68032 12.8681 0.753065 13.035 0.882157 13.1582C1.01125 13.2813 1.18619 13.3507 1.36875 13.3512H2.79058V2.78939H1.36875Z" fill="white"/>
<path d="M15.631 14H13.8691C13.7789 14 13.6924 13.9658 13.6287 13.905C13.5649 13.8441 13.5291 13.7616 13.5291 13.6756V2.46528C13.5291 2.37924 13.5649 2.29672 13.6287 2.23589C13.6924 2.17505 13.7789 2.14087 13.8691 2.14087H15.631C15.994 2.14119 16.3419 2.27885 16.5986 2.52364C16.8553 2.76844 16.9997 3.10037 17.0001 3.4466V12.694C16.9997 13.0403 16.8554 13.3723 16.5987 13.6171C16.342 13.862 15.994 13.9997 15.631 14ZM14.2092 13.3512H15.631C15.8136 13.3507 15.9885 13.2813 16.1176 13.1582C16.2467 13.035 16.3194 12.8681 16.3199 12.694V3.4466C16.3194 3.27244 16.2467 3.10556 16.1176 2.98241C15.9885 2.85926 15.8136 2.78986 15.631 2.78939H14.2095L14.2092 13.3512Z" fill="white"/>
<path d="M10.6289 2.7894H6.37132C6.28113 2.7894 6.19463 2.75522 6.13085 2.69438C6.06708 2.63354 6.03125 2.55103 6.03125 2.46499V0.868692C6.03183 0.638471 6.12796 0.417837 6.29861 0.255046C6.46926 0.0922542 6.70053 0.000553704 6.94187 0H10.0559C10.2972 0.000553704 10.5285 0.0922542 10.6991 0.255046C10.8698 0.417837 10.9659 0.638471 10.9665 0.868692V2.46499C10.9665 2.55061 10.931 2.63277 10.8678 2.69354C10.8045 2.75431 10.7187 2.78877 10.6289 2.7894ZM6.71138 2.14058H10.2889V0.868692C10.2888 0.810006 10.2643 0.753746 10.2208 0.712249C10.1773 0.670751 10.1183 0.647405 10.0568 0.647326H6.94281C6.88132 0.647405 6.82238 0.670761 6.77893 0.712267C6.73548 0.753772 6.71108 0.810033 6.71108 0.868692L6.71138 2.14058Z" fill="white"/>
</svg>
